<svg xmlns="http://www.w3.org/2000/svg" viewBox="1040 224 200 214"><path fill="#009700" d="M 1216.121094 238.074219 C 1216.640625 237.550781 1216.902344 236.773438 1216.902344 236.25 C 1216.902344 234.949219 1215.859375 233.90625 1214.558594 233.90625 L 1190.085938 233.386719 C 1188.78125 233.386719 1187.480469 233.90625 1186.441406 234.949219 L 1105.207031 316.699219 L 1095.054688 316.699219 L 1104.6875 237.550781 L 1104.6875 237.03125 C 1104.6875 234.949219 1103.125 233.386719 1101.042969 233.386719 L 1083.335938 233.386719 C 1080.734375 233.386719 1078.914062 234.6875 1078.652344 237.550781 L 1056 421.886719 L 1056 422.148438 C 1056 424.230469 1057.824219 425.789062 1059.90625 425.789062 L 1077.347656 425.789062 C 1079.695312 425.789062 1081.773438 423.96875 1082.035156 421.886719 L 1092.1875 339.09375 L 1102.34375 339.09375 L 1166.652344 424.230469 C 1167.433594 425.269531 1168.738281 425.789062 1169.777344 425.789062 L 1195.550781 425.789062 C 1197.113281 425.789062 1198.417969 424.75 1198.417969 423.1875 C 1198.417969 422.929688 1198.417969 422.148438 1197.898438 421.367188 L 1123.695312 328.15625 Z M 1216.121094 238.074219 "/></svg>
