<svg xmlns="http://www.w3.org/2000/svg" viewBox="1052 226 728 208" width="182" height="52" role="img" aria-label="Keuda">
  <path fill="#FFFFFF" d="M 1216.121094 238.074219 C 1216.640625 237.550781 1216.902344 236.773438 1216.902344 236.25 C 1216.902344 234.949219 1215.859375 233.90625 1214.558594 233.90625 L 1190.085938 233.386719 C 1188.78125 233.386719 1187.480469 233.90625 1186.441406 234.949219 L 1105.207031 316.699219 L 1095.054688 316.699219 L 1104.6875 237.550781 L 1104.6875 237.03125 C 1104.6875 234.949219 1103.125 233.386719 1101.042969 233.386719 L 1083.335938 233.386719 C 1080.734375 233.386719 1078.914062 234.6875 1078.652344 237.550781 L 1056 421.886719 L 1056 422.148438 C 1056 424.230469 1057.824219 425.789062 1059.90625 425.789062 L 1077.347656 425.789062 C 1079.695312 425.789062 1081.773438 423.96875 1082.035156 421.886719 L 1092.1875 339.09375 L 1102.34375 339.09375 L 1166.652344 424.230469 C 1167.433594 425.269531 1168.738281 425.789062 1169.777344 425.789062 L 1195.550781 425.789062 C 1197.113281 425.789062 1198.417969 424.75 1198.417969 423.1875 C 1198.417969 422.929688 1198.417969 422.148438 1197.898438 421.367188 L 1123.695312 328.15625 Z M 1216.121094 238.074219 "/>
  <path fill="#FFFFFF" d="M 1315.054688 328.679688 C 1315.054688 356.015625 1292.40625 353.933594 1241.894531 357.058594 C 1243.976562 329.980469 1251.789062 303.941406 1285.113281 303.941406 C 1302.558594 303.941406 1315.054688 310.453125 1315.054688 328.679688 M 1339.53125 328.15625 C 1339.53125 293.527344 1316.617188 285.71875 1287.71875 285.71875 C 1265.847656 285.71875 1248.664062 290.925781 1236.949219 303.164062 C 1224.710938 316.179688 1215.859375 345.078125 1215.859375 372.675781 C 1215.859375 399.496094 1221.066406 429.175781 1273.65625 429.175781 C 1290.0625 429.175781 1307.503906 426.570312 1322.347656 421.625 C 1324.429688 420.84375 1325.730469 420.0625 1325.730469 418.242188 C 1325.730469 417.980469 1325.730469 417.460938 1325.46875 416.15625 L 1323.386719 405.746094 C 1323.128906 404.183594 1322.085938 403.660156 1321.042969 403.660156 C 1320.523438 403.660156 1319.480469 403.921875 1318.441406 404.183594 C 1306.722656 407.566406 1293.703125 410.691406 1280.429688 410.691406 C 1268.972656 410.691406 1258.820312 408.867188 1251.789062 404.183594 C 1244.5 399.496094 1240.332031 391.683594 1240.332031 379.1875 L 1240.332031 374.238281 C 1305.421875 371.636719 1339.53125 371.113281 1339.53125 328.15625 M 1474.652344 375.800781 L 1485.066406 289.363281 L 1485.066406 288.84375 C 1485.066406 287.28125 1483.765625 285.71875 1481.941406 285.71875 L 1481.421875 285.71875 L 1464.496094 289.101562 C 1461.894531 289.625 1460.855469 290.925781 1460.59375 293.527344 L 1450.175781 377.625 C 1448.09375 395.851562 1443.148438 410.953125 1412.167969 410.953125 C 1393.160156 410.953125 1381.445312 406.003906 1381.445312 387.519531 C 1381.445312 384.394531 1381.703125 382.832031 1382.222656 377.886719 L 1393.160156 289.363281 L 1393.160156 288.84375 C 1393.160156 287.28125 1392.117188 285.71875 1389.777344 285.71875 L 1389.515625 285.71875 L 1372.332031 289.363281 C 1370.25 289.882812 1368.6875 290.925781 1368.425781 293.269531 L 1358.53125 375.800781 C 1358.011719 380.488281 1357.492188 385.175781 1357.492188 389.339844 C 1357.492188 401.058594 1360.09375 409.910156 1366.339844 416.417969 C 1374.414062 425.011719 1388.214844 429.175781 1409.820312 429.175781 C 1461.632812 429.175781 1471.269531 403.140625 1474.652344 375.800781 M 1607.429688 308.371094 L 1595.457031 406.265625 C 1595.457031 406.265625 1580.355469 410.691406 1562.652344 410.691406 C 1550.933594 410.691406 1542.082031 409.648438 1536.09375 403.921875 C 1531.148438 399.234375 1528.542969 390.902344 1528.542969 377.105469 C 1528.542969 362.523438 1530.625 345.601562 1534.792969 331.804688 C 1542.082031 308.890625 1554.320312 304.203125 1575.148438 304.203125 C 1592.332031 304.203125 1607.429688 308.371094 1607.429688 308.371094 M 1619.925781 402.878906 L 1640.757812 233.648438 L 1640.757812 232.863281 C 1640.757812 231.300781 1639.976562 230 1638.15625 230 L 1637.375 230 L 1620.191406 233.648438 C 1617.585938 234.167969 1616.285156 235.210938 1616.023438 237.550781 L 1611.339844 275.5625 L 1612.117188 290.664062 C 1604.570312 288.84375 1591.808594 285.71875 1573.847656 285.71875 C 1539.21875 285.71875 1521.253906 298.214844 1512.144531 324.773438 C 1506.414062 340.652344 1503.289062 364.347656 1503.289062 381.53125 C 1503.289062 397.414062 1506.933594 408.867188 1514.746094 416.679688 C 1523.597656 425.269531 1537.914062 429.175781 1559.527344 429.175781 C 1577.753906 429.175781 1589.726562 426.570312 1598.839844 424.488281 C 1617.847656 419.804688 1618.628906 412.253906 1619.925781 402.878906 M 1746.71875 355.234375 L 1740.210938 406.785156 C 1730.320312 409.910156 1718.863281 411.210938 1707.667969 411.210938 C 1698.296875 411.210938 1687.621094 410.691406 1681.113281 405.222656 C 1677.207031 402.097656 1674.601562 397.414062 1674.601562 390.382812 C 1674.601562 384.917969 1675.644531 378.144531 1678.503906 373.460938 C 1683.191406 365.386719 1690.746094 364.089844 1699.597656 362.78125 Z M 1775.363281 313.054688 C 1775.363281 304.984375 1772.757812 297.695312 1764.429688 292.75 C 1757.136719 288.320312 1745.417969 285.71875 1726.675781 285.71875 C 1702.457031 285.71875 1679.027344 290.925781 1670.433594 293.527344 C 1668.871094 294.050781 1667.570312 294.832031 1667.570312 297.175781 L 1667.570312 297.433594 L 1668.613281 310.710938 C 1668.871094 312.273438 1669.917969 312.796875 1670.957031 312.796875 C 1671.480469 312.796875 1672.519531 312.535156 1673.820312 312.273438 C 1684.238281 310.191406 1701.417969 305.246094 1720.945312 305.246094 C 1731.882812 305.246094 1738.914062 306.027344 1743.335938 307.851562 C 1749.066406 310.191406 1750.886719 314.097656 1750.886719 318.78125 C 1750.886719 323.730469 1749.84375 331.019531 1749.066406 337.007812 L 1699.078125 345.078125 C 1679.289062 348.203125 1662.886719 350.285156 1654.550781 367.992188 C 1651.167969 375.28125 1649.347656 385.433594 1649.347656 393.765625 C 1649.347656 409.390625 1656.636719 418.242188 1666.273438 423.1875 C 1677.726562 428.917969 1693.085938 429.175781 1705.066406 429.175781 C 1718.863281 429.175781 1731.621094 427.351562 1739.691406 425.53125 C 1758.179688 421.363281 1763.125 417.199219 1765.46875 398.714844 L 1773.800781 330.761719 C 1774.320312 326.59375 1775.363281 317.480469 1775.363281 313.054688 "/>
</svg>
